# xmcd
#
# Track frame offsets: 
#        150
#        14730
#        25746
#        27609
#        36789
#        37518
#        52557
#        53799
#        65787
#        68271
#        78531
#        90870
#        94515
#        106530
#        107799
#        120246
#        120948
#        132045
#        132828
#        143628
#        147192
#        157992
#        168117
#        172491
#        183021
#        184155
#        194658
#        200220
#        212640
#        213531
#        223413
#        223872
#        252492
#        257811
#        268638
#        273768
#        283974
#        286296
#        299715
#
# Disc length: 4015 seconds
#
# Revision: 0
# Processed by: cddbd v1.5.2PL0 Copyright (c) Steve Scherf et al.
# Submitted via: ExactAudioCopy v0.95b3
#
DISCID=490fad27
DTITLE=The Beatles  - The Days In Their Life - Vol.07  FLAC
DYEAR=1900
DGENRE=
TTITLE0=Narrative
TTITLE1=Drive My Car
TTITLE2=Narrative
TTITLE3=Norwegian Wood
TTITLE4=Narrative
TTITLE5=You Won't See Me
TTITLE6=Narrative
TTITLE7=Nowhere Man
TTITLE8=Narrative
TTITLE9=Think For Yourself
TTITLE10=NarrativeThe Word
TTITLE11=Narrative
TTITLE12=Michelle
TTITLE13=Narrative
TTITLE14=What Goes On
TTITLE15=Narrative
TTITLE16=Girl
TTITLE17=Narrative
TTITLE18=I'm Looking Through You
TTITLE19=Narrative
TTITLE20=In My Life
TTITLE21=NarrativeWait
TTITLE22=Narrative
TTITLE23=If I Needed Someone
TTITLE24=Narrative
TTITLE25=Run For Your Life
TTITLE26=Narrative
TTITLE27=Day Tripper
TTITLE28=Narrative
TTITLE29=We Can Work It Out
TTITLE30=Narrative
TTITLE31=1965 Christmas Message
TTITLE32=Narrative
TTITLE33=Woman (Peter And Gordon)
TTITLE34=Narrative
TTITLE35=Paperback Writer
TTITLE36=Narrative
TTITLE37=Rain
TTITLE38=Narrative
EXTD=
EXTT0=
EXTT1=
EXTT2=
EXTT3=
EXTT4=
EXTT5=
EXTT6=
EXTT7=
EXTT8=
EXTT9=
EXTT10=
EXTT11=
EXTT12=
EXTT13=
EXTT14=
EXTT15=
EXTT16=
EXTT17=
EXTT18=
EXTT19=
EXTT20=
EXTT21=
EXTT22=
EXTT23=
EXTT24=
EXTT25=
EXTT26=
EXTT27=
EXTT28=
EXTT29=
EXTT30=
EXTT31=
EXTT32=
EXTT33=
EXTT34=
EXTT35=
EXTT36=
EXTT37=
EXTT38=
PLAYORDER=
